<?xml version="1.0" standalone="no"?>
<!DOCTYPE svg PUBLIC "-//W3C//DTD SVG 20010904//EN"
 "http://www.w3.org/TR/2001/REC-SVG-20010904/DTD/svg10.dtd">
<svg version="1.0" xmlns="http://www.w3.org/2000/svg"
 width="500.000000pt" height="500.000000pt" viewBox="0 0 500.000000 500.000000"
 preserveAspectRatio="xMidYMid meet">

<g transform="translate(0.000000,500.000000) scale(0.100000,-0.100000)"
fill="#000000" stroke="none">
<path d="M2167 4705 c-469 -76 -901 -296 -1232 -629 -357 -359 -573 -788 -639
-1274 -21 -146 -21 -453 -1 -605 63 -485 303 -954 665 -1300 343 -328 749
-528 1225 -603 155 -24 481 -24 630 0 256 41 441 99 660 205 545 265 957 737
1143 1312 233 717 90 1497 -383 2084 -82 102 -248 268 -345 346 -221 176 -533
335 -810 412 -180 50 -267 60 -550 63 -201 2 -299 -1 -363 -11z m638 -100
c524 -77 1005 -350 1343 -760 585 -711 640 -1743 135 -2505 -123 -185 -229
-306 -398 -453 -412 -360 -986 -551 -1528 -509 -778 62 -1441 512 -1771 1204
-100 209 -157 394 -192 623 -22 148 -22 442 0 590 108 713 548 1313 1189 1620
249 119 482 182 777 209 85 8 336 -3 445 -19z"/>
<path d="M2290 4459 c-304 -34 -613 -147 -870 -316 -741 -489 -1063 -1405
-791 -2248 140 -436 435 -813 831 -1062 119 -75 176 -104 313 -159 511 -205
1084 -185 1582 56 618 299 1037 900 1104 1584 58 583 -151 1160 -568 1576
-379 378 -884 585 -1410 579 -64 -1 -150 -5 -191 -10z m399 -89 c565 -60 1070
-366 1381 -840 274 -418 369 -915 269 -1415 -30 -147 -44 -172 -187 -318 -93
-95 -278 -198 -427 -238 -66 -18 -112 -22 -265 -24 -102 -1 -179 0 -171 3 8 3
-19 13 -60 24 -156 40 -322 141 -450 274 -156 162 -242 364 -259 604 -10 136
-45 305 -86 412 -32 85 -107 210 -179 298 -98 122 -314 253 -495 302 -115 30
-367 33 -475 4 -175 -47 -320 -127 -438 -240 -46 -45 -96 -97 -111 -116 l-26
-35 25 74 c85 251 277 542 485 735 400 369 940 551 1469 496z m-942 -1314
c122 -33 210 -101 261 -202 36 -73 48 -124 57 -236 l7 -88 -328 -2 -329 -3 2
-123 c4 -311 82 -442 264 -442 95 0 192 44 252 116 28 34 87 150 87 173 0 8 6
11 16 7 9 -3 19 -6 24 -6 22 0 -37 -136 -90 -206 -49 -64 -115 -109 -205 -137
-92 -28 -305 -30 -405 -3 -198 54 -325 184 -376 386 -23 88 -23 292 0 378 57
221 221 364 461 402 75 11 234 4 302 -14z"/>
<path d="M3320 3085 c-209 -47 -367 -194 -414 -386 -21 -85 -21 -290 -1 -378
47 -199 179 -336 371 -386 136 -35 331 -28 448 16 82 30 167 112 211 203 46
95 53 126 29 126 -14 0 -27 -19 -48 -73 -38 -93 -117 -176 -191 -200 -82 -27
-146 -31 -206 -14 -128 38 -188 180 -189 450 l0 117 325 0 325 0 0 73 c0 165
-64 308 -169 381 -78 55 -163 78 -301 82 -86 3 -145 -1 -190 -11z m189 -41
c45 -32 54 -76 59 -266 l4 -178 -122 0 -123 0 6 153 c3 95 11 171 21 204 27
87 98 127 155 87z"/>
<path d="M1488 3010 c-48 -37 -61 -90 -66 -267 l-4 -163 117 0 118 0 -5 173
c-6 185 -16 230 -59 261 -31 22 -71 20 -101 -4z"/>
</g>
</svg>
